<?xml version="1.0" encoding="UTF-8" standalone="no"?>
<svg
   xmlns:dc="http://purl.org/dc/elements/1.1/"
   xmlns:cc="http://creativecommons.org/ns#"
   xmlns:rdf="http://www.w3.org/1999/02/22-rdf-syntax-ns#"
   xmlns:svg="http://www.w3.org/2000/svg"
   xmlns="http://www.w3.org/2000/svg"
   xmlns:sodipodi="http://sodipodi.sourceforge.net/DTD/sodipodi-0.dtd"
   xmlns:inkscape="http://www.inkscape.org/namespaces/inkscape"
   height="72"
   viewBox="0 0 72 72"
   width="72"
   version="1.1"
   id="svg8"
   sodipodi:docname="iconfinder_Email_4745721.svg"
   inkscape:version="0.92.4 (5da689c313, 2019-01-14)">
  <metadata
     id="metadata14">
    <rdf:RDF>
      <cc:Work
         rdf:about="">
        <dc:format>image/svg+xml</dc:format>
        <dc:type
           rdf:resource="http://purl.org/dc/dcmitype/StillImage" />
      </cc:Work>
    </rdf:RDF>
  </metadata>
  <defs
     id="defs12" />
  <sodipodi:namedview
     pagecolor="#ffffff"
     bordercolor="#666666"
     borderopacity="1"
     objecttolerance="10"
     gridtolerance="10"
     guidetolerance="10"
     inkscape:pageopacity="0"
     inkscape:pageshadow="2"
     inkscape:window-width="699"
     inkscape:window-height="480"
     id="namedview10"
     showgrid="false"
     inkscape:zoom="3.2777778"
     inkscape:cx="36"
     inkscape:cy="36"
     inkscape:window-x="0"
     inkscape:window-y="0"
     inkscape:window-maximized="0"
     inkscape:current-layer="svg8" />
  <path
     style="fill:#008080;fill-rule:evenodd"
     inkscape:connector-curvature="0"
     id="path2"
     d="m 8,72 h 56 c 4.418278,0 8,-3.581722 8,-8 V 8 C 72,3.581722 68.418278,0 64,0 H 8 C 3.581722,0 0,3.581722 0,8 v 56 c 0,4.418278 3.581722,8 8,8 z" />
  <path
     style="fill:#ffffff;fill-rule:evenodd;stroke-width:1.3591764"
     inkscape:connector-curvature="0"
     id="path4"
     d="m 11.59322,22.529103 v 27.707205 c 0,1.50737 1.103301,2.729051 2.623298,2.729051 H 57.45832 c 1.51842,0 2.623299,-1.235886 2.623299,-2.729051 V 22.529103 c 0,-1.654162 -0.988078,-2.938978 -2.623299,-2.938978 H 14.216518 c -1.698356,0 -2.623298,1.316384 -2.623298,2.938978 m 3.987034,2.41337 c 0,-0.667661 0.404071,-1.049634 1.049635,-1.049634 0.399336,0 16.112291,9.956537 17.064065,10.540544 l 2.459144,1.529468 c 0.77973,-0.52245 1.562616,-0.969137 2.370755,-1.510526 1.649427,-1.054371 16.325374,-10.559486 16.729445,-10.559486 0.647143,0 1.049635,0.381973 1.049635,1.049634 0,0.707123 -1.362158,1.409511 -2.249218,1.950901 C 48.48039,30.290088 42.908644,33.99301 37.390563,37.515995 37.06857,37.733814 36.445102,38.199442 35.977896,38.128414 35.457025,38.04791 19.467849,27.7757 16.558861,26.064715 16.121645,25.807437 15.580254,25.572255 15.580254,24.942473" />
</svg>
