<?xml version="1.0" encoding="UTF-8" standalone="no"?>
<svg
   xmlns:dc="http://purl.org/dc/elements/1.1/"
   xmlns:cc="http://creativecommons.org/ns#"
   xmlns:rdf="http://www.w3.org/1999/02/22-rdf-syntax-ns#"
   xmlns:svg="http://www.w3.org/2000/svg"
   xmlns="http://www.w3.org/2000/svg"
   xmlns:sodipodi="http://sodipodi.sourceforge.net/DTD/sodipodi-0.dtd"
   xmlns:inkscape="http://www.inkscape.org/namespaces/inkscape"
   height="72"
   viewBox="0 0 72 72"
   width="72"
   version="1.1"
   id="svg8"
   sodipodi:docname="github.svg"
   inkscape:version="0.92.4 (5da689c313, 2019-01-14)">
  <metadata
     id="metadata14">
    <rdf:RDF>
      <cc:Work
         rdf:about="">
        <dc:format>image/svg+xml</dc:format>
        <dc:type
           rdf:resource="http://purl.org/dc/dcmitype/StillImage" />
      </cc:Work>
    </rdf:RDF>
  </metadata>
  <defs
     id="defs12" />
  <sodipodi:namedview
     pagecolor="#ffffff"
     bordercolor="#666666"
     borderopacity="1"
     objecttolerance="10"
     gridtolerance="10"
     guidetolerance="10"
     inkscape:pageopacity="0"
     inkscape:pageshadow="2"
     inkscape:window-width="1718"
     inkscape:window-height="1368"
     id="namedview10"
     showgrid="false"
     inkscape:zoom="9.2709556"
     inkscape:cx="39.750422"
     inkscape:cy="23.651585"
     inkscape:window-x="-7"
     inkscape:window-y="0"
     inkscape:window-maximized="0"
     inkscape:current-layer="svg8" />
  <path
     id="path2"
     d="m 8,72 h 56 c 4.418278,0 8,-3.581722 8,-8 V 8 C 72,3.581722 68.418278,0 64,0 H 8 C 3.581722,0 0,3.581722 0,8 v 56 c 0,4.418278 3.581722,8 8,8 z"
     inkscape:connector-curvature="0"
     style="fill:#2b2200;fill-rule:evenodd" />
  <path
     id="path4"
     d="M 35.9985,12 C 22.746,12 12,22.787092 12,36.096644 c 0,10.644027 6.876,19.675186 16.4145,22.861768 1.2,0.221374 1.638,-0.522563 1.638,-1.161084 0,-0.57226 -0.021,-2.087242 -0.033,-4.09768 -6.6765,1.45625 -8.085,-3.230254 -8.085,-3.230254 -1.0905,-2.782989 -2.664,-3.523914 -2.664,-3.523914 -2.1795,-1.495405 0.165,-1.465286 0.165,-1.465286 2.4075,0.170172 3.675,2.483305 3.675,2.483305 2.142,3.682039 5.6175,2.618841 6.9855,2.001403 0.2175,-1.557149 0.8385,-2.618841 1.524,-3.221219 -5.3295,-0.608402 -10.932,-2.67456 -10.932,-11.907516 0,-2.630888 0.9345,-4.781379 2.4705,-6.466533 -0.2475,-0.609908 -1.071,-3.058576 0.234,-6.376176 0,0 2.016,-0.647556 6.6,2.469752 1.9155,-0.534611 3.9675,-0.801163 6.009,-0.811705 2.0385,0.01054 4.092,0.277094 6.009,0.811705 4.581,-3.117308 6.5925,-2.469752 6.5925,-2.469752 1.3095,3.3176 0.486,5.766268 0.2385,6.376176 1.539,1.685154 2.4675,3.835645 2.4675,6.466533 0,9.255545 -5.6115,11.29309 -10.9575,11.889445 0.861,0.743937 1.629,2.21374 1.629,4.462118 0,3.221219 -0.03,5.818976 -0.03,6.609598 0,0.644545 0.432,1.394506 1.65,1.158072 C 53.13,55.762794 60,46.737659 60,36.096644 60,22.787092 49.254,12 35.9985,12"
     inkscape:connector-curvature="0"
     style="fill:#ffffff;fill-rule:evenodd" />
</svg>
